PathFileType	4	(X/Y/Z)	Patient4_TMGait_0pt2_03_right_13.trc.trc
DataRate	CameraRate	NumFrames	NumMarkers	Units	OrigDataRate	OrigDataStartFrame	OrigNumFrames
46.822742474916	46.822742474916	4	33	mm	46.822742474916	89	       141
Frame#	Time	Sacral			L.Shoulder			Chest			R.Shoulder			Neck			R.ASIS			L.ASIS			R.Thigh.Superior			R.Thigh.Lateral			R.Thigh.Inferior			R.Patella			L.Thigh.Superior			L.Thigh.Lateral			L.Thigh.Inferior			L.Patella			L.Shank.Superior			L.Shank.Lateral			L.Shank.Inferior			R.Shank.Superior			R.Shank.Lateral			R.Shank.Inferior			R.Heel			R.Midfoot.Superior			R.Midfoot.Lateral			R.Toe			L.Heel			L.Midfoot.Lateral			L.Midfoot.Superior			L.Toe			L.Elbow			L.Wrist			R.Elbow			R.Wrist			
		X1	Y1	Z1	X2	Y2	Z2	X3	Y3	Z3	X4	Y4	Z4	X5	Y5	Z5	X6	Y6	Z6	X7	Y7	Z7	X8	Y8	Z8	X9	Y9	Z9	X10	Y10	Z10	X11	Y11	Z11	X12	Y12	Z12	X13	Y13	Z13	X14	Y14	Z14	X15	Y15	Z15	X16	Y16	Z16	X17	Y17	Z17	X18	Y18	Z18	X19	Y19	Z19	X20	Y20	Z20	X21	Y21	Z21	X22	Y22	Z22	X23	Y23	Z23	X24	Y24	Z24	X25	Y25	Z25	X26	Y26	Z26	X27	Y27	Z27	X28	Y28	Z28	X29	Y29	Z29	X30	Y30	Z30	X31	Y31	Z31	X32	Y32	Z32	X33	Y33	Z33	

89	29.699428571429	863.958959044027	1018.539549134549	517.572710637319	1023.887373127031	1425.024125441784	285.289670192371	1156.490815805908	1354.710521174577	422.307911291869	1117.586777338139	1445.866770199513	601.266668544190	1039.173529485289	1492.448004878232	437.778368775801	1102.631848716424	935.916343631973	597.137505283896	1047.764467440962	956.616542813333	329.149668594170	1093.137031780149	721.590927481924	573.363066231498	1000.585680303787	629.241051604595	650.670266594193	1050.453997156753	561.635510645472	564.382625382131	1033.425757387219	473.991790012573	576.404786140664	1113.720904724275	760.023497743387	363.528831395595	1031.688534701965	626.453022806838	303.445582248227	1134.751246970667	567.478002292713	365.810366254550	1142.291972170344	497.428690453619	372.521434906003	1118.689579578287	423.649208409582	363.933812467225	1033.605926459047	305.807074508933	310.886538503103	1092.135875508620	195.822996019669	379.570887792859	985.074781006213	395.326595904641	591.881963548719	897.641510022203	311.885608815953	664.394146337198	913.693272568768	207.515092094794	604.850902627772	749.572480144726	60.497005027039	588.909923269727	925.513949290964	98.957658361620	620.453859701207	833.958978297569	46.152281410745	661.421853799882	1041.061126719354	38.724535658826	647.713402916511	970.151109959940	38.195348165143	418.522263570332	1044.762185848968	36.164484647559	338.315876239891	1127.354281288673	97.069600198901	365.888598552203	1255.930148621622	47.338831258057	338.498442639667	875.676585471241	1107.599267566185	187.502169956374	882.304560319281	847.921905134310	226.530186927432	1321.546068123226	1183.194125606671	696.131231925351	1480.802157819243	1314.666124180010	554.389362572243	
90	29.720785714286	863.607312069701	1019.556282903643	511.074584999103	1025.784490682780	1425.868156293190	280.244924271029	1156.594186125459	1356.073218968192	419.176989935042	1115.251260819305	1447.703503918467	597.411708177494	1038.748352638463	1493.714166510590	432.854751747962	1101.362320219400	937.431190192677	593.463100812765	1049.495787425353	957.274641156145	324.952568402369	1092.819471247887	723.017075003551	570.737978728798	1000.043426185877	630.688198274876	647.812336945088	1051.299956720620	562.629436550061	562.428638968562	1034.668841035267	474.182978501387	575.189589134699	1113.336841978176	759.444871377460	359.516103715003	1029.814285972599	626.488200153491	300.007953936491	1132.112155695922	566.834480484873	362.782868239956	1138.926433327682	496.950512409870	369.969644247649	1115.250677091678	423.294451104239	361.742445123002	1029.885783871308	305.348901620082	309.327502330321	1088.163718751051	195.659332475678	378.806720093283	985.151376265144	396.372842977161	590.665195633694	896.153846249329	314.396578125936	663.140711675286	911.975701348949	209.189013687878	604.517127835161	746.319266345895	63.723407715318	588.861041599711	922.933348787399	99.326023464270	620.575795948951	830.524898185885	47.849731993778	661.330445260071	1037.400463815554	38.091647370844	647.657833244359	965.828767678583	38.142596357191	418.556904225379	1040.410794949153	36.107717398529	338.307158790780	1123.020046353091	96.975316029667	365.806060821044	1251.606415700571	47.221067393154	338.461771091447	884.048087690359	1105.846490967084	178.861547123536	895.668953284893	846.084866995432	215.718464614676	1314.258479109999	1180.412615445536	695.189775193403	1484.498610265543	1302.029812279320	556.683932760061	
91	29.742142857143	863.222446327618	1020.493123258036	504.624759539997	1027.564201327830	1426.775727013682	275.392811487602	1156.510188610833	1357.512011069194	416.251643236585	1112.673267132584	1449.535334852933	593.761602372064	1038.139651879181	1495.010950884002	428.163857207235	1100.035071233815	939.000890255288	589.806430892913	1051.193556769469	957.993019270257	320.821219736212	1093.189582758626	724.633475992484	568.090536730214	1000.507069486732	631.997287167512	644.822551201063	1053.513456083741	563.676355517294	560.352645891295	1037.453595790237	474.125750554390	573.944739177182	1112.886380912809	758.853549987694	355.518361349027	1027.855465153253	626.548319291212	296.590448340921	1129.389395916503	566.192691657474	359.753841160114	1135.465236395377	496.476464805380	367.387319849253	1111.731347917644	422.954136387276	359.525119757695	1026.089371715711	304.892649956817	307.774503565924	1084.148297757621	195.494717145403	378.013301754876	986.456026371536	397.330220329797	589.358290372931	895.621591687045	317.220418493663	661.778324118943	910.906756488717	211.131019542630	604.148730259706	743.309517277763	67.796692547458	588.799345281782	920.625899771876	99.923225875376	620.702779748544	827.195051968829	50.112978324708	661.222174350341	1033.660717336058	37.439220155312	647.550602411910	961.507426940143	38.082940937297	418.592280519639	1036.060819646986	36.050416926355	338.297973885855	1118.678332747978	96.888126220980	365.710710761441	1247.281891688717	47.127316955426	338.423585565734	893.399227877107	1103.789115431515	170.612786336005	909.928981961043	844.042772068272	205.260219149147	1305.596569598236	1176.704549381364	694.407621589609	1487.387019898406	1286.462777841572	560.048029842423	
92	29.763500000000	862.789363074093	1021.238640614263	498.261404390614	1029.159302985811	1427.707131697812	270.793341850047	1156.193037234840	1358.961841437044	413.558473414283	1109.823601561520	1451.236548136563	590.371853380680	1037.316682475489	1496.258487869226	423.782069804446	1098.680621155453	940.545912108306	586.153043506418	1052.819102811546	958.724945525552	316.743801878143	1094.412075912953	726.422877607355	565.343635211551	1002.229232483644	633.101996232835	641.643649183454	1057.349089381014	564.757950489069	558.076895133088	1042.037214865374	473.793973622948	572.588906007624	1112.462597426657	758.263451182662	351.557627077312	1026.013724878091	626.586970911987	293.203457596941	1126.820706050614	565.558977799186	356.742107511721	1132.188240448464	495.978433534185	364.786517129825	1108.359500538570	422.580711536387	357.306835358274	1022.393607640713	304.439448367069	306.227172445649	1080.171494787836	195.301316055940	377.204977730829	989.215236442966	398.164374763394	587.889758039152	896.274355201665	320.422029337913	660.248611970443	910.586410527606	213.432189022840	603.699699461499	740.587288462110	73.039393215578	588.705032957881	918.583564996616	100.905807729268	620.802706664140	823.962999485146	53.220747619831	661.084109126107	1029.747248552164	36.791090039240	647.394355082397	957.193928697747	38.027850277755	418.624806688623	1031.720209158542	35.997905062879	338.288222516554	1114.342144998157	96.806168644431	365.607442800664	1242.966376548294	47.042285999426	338.385681049387	903.796145524637	1101.445489086671	162.843532051260	925.146513916412	841.808034433159	195.248089245781	1295.546261555898	1172.045768674809	693.745772016406	1489.090962455916	1267.692762653770	564.473306957247	
